<?xml version="1.0" encoding="utf-8"?>
<!-- Generator: Adobe Illustrator 23.1.0, SVG Export Plug-In . SVG Version: 6.00 Build 0)  -->
<svg version="1.1" id="图层_1" xmlns="http://www.w3.org/2000/svg" xmlns:xlink="http://www.w3.org/1999/xlink" x="0px" y="0px"
	 viewBox="0 0 192 192" style="enable-background:new 0 0 192 192;" xml:space="preserve">
<path d="M138.2,29.3h14.6c12.7,0,22.9,10.3,22.9,22.9v100c0,12.7-10.3,22.9-22.9,22.9H40.2c-12.7,0-22.9-10.3-22.9-22.9v-100
	c0-12.7,10.3-22.9,22.9-22.9h14.6v-6.3c0-3.5,2.8-6.3,6.3-6.3c3.5,0,6.3,2.8,6.3,6.3v6.3h58.3v-6.3c0-3.5,2.8-6.3,6.3-6.3
	c3.5,0,6.3,2.8,6.3,6.3V29.3z M138.2,41.8v6.3c0,3.5-2.8,6.3-6.3,6.3c-3.5,0-6.3-2.8-6.3-6.3v-6.3H67.3v6.3c0,3.5-2.8,6.3-6.3,6.3
	c-3.5,0-6.3-2.8-6.3-6.3v-6.3H40.2c-5.8,0-10.4,4.7-10.4,10.4c0,0,0,0,0,0v100c0,5.7,4.6,10.4,10.4,10.4c0,0,0,0,0,0h112.5
	c5.8,0,10.4-4.7,10.4-10.4c0,0,0,0,0,0v-100c0-5.7-4.6-10.4-10.4-10.4c0,0,0,0,0,0H138.2z M136.1,85.6c3.5,0,6.3,2.8,6.3,6.3
	s-2.8,6.3-6.3,6.3H56.9c-3.5,0-6.3-2.8-6.3-6.3s2.8-6.3,6.3-6.3H136.1L136.1,85.6z M111.1,116.8c3.5,0,6.3,2.8,6.3,6.3
	c0,3.5-2.8,6.3-6.3,6.3H56.9c-3.5,0-6.3-2.8-6.3-6.3c0-3.5,2.8-6.3,6.3-6.3H111.1z"/>
</svg>
