<?xml version="1.0" encoding="utf-8"?>
<!-- Generator: Adobe Illustrator 23.1.0, SVG Export Plug-In . SVG Version: 6.00 Build 0)  -->
<svg version="1.1" id="图层_1" xmlns="http://www.w3.org/2000/svg" xmlns:xlink="http://www.w3.org/1999/xlink" x="0px" y="0px"
	 viewBox="0 0 192 192" style="enable-background:new 0 0 192 192;" xml:space="preserve">
<style type="text/css">
	.st0{stroke:#000000;stroke-width:2;stroke-miterlimit:10;}
</style>
<path class="st0" d="M161.9,137.5l-3.5-93.6c-0.1-2.8-2.4-5-5.2-5h-20.6c-1.1,0-2.1-0.7-2.4-1.8c-1.8-5.1-4.8-9.8-8.6-13.6
	C115.1,17,106,13,96,13c-15.8,0-29.3,10.1-34.2,24.2c-0.4,1-1.3,1.8-2.4,1.8H38.7c-2.8,0-5.1,2.2-5.2,5l-3.5,93.6l-1.1,30.7
	c-0.2,5.9,4.5,10.8,10.4,10.8h113.4c5.9,0,10.6-4.9,10.4-10.8L161.9,137.5z M77.6,31c4.7-4.7,11.2-7.6,18.3-7.6
	c10.3,0,19.1,6,23.4,14.6c0.2,0.4-0.1,0.9-0.6,0.9H73.2c-0.5,0-0.8-0.5-0.6-0.9C73.9,35.4,75.6,33,77.6,31z M46.2,49.3h12.1
	c0.7,0,1.3,0.6,1.3,1.3v19.5c0,1.4,0.6,2.7,1.5,3.7c1,1,2.3,1.6,3.8,1.5c2.8-0.1,5.1-2.4,5.1-5.3V50.6c0-0.7,0.6-1.3,1.3-1.3h49.3
	c0.7,0,1.3,0.6,1.3,1.3v19.5c0,1.4,0.6,2.7,1.5,3.7c1,1,2.3,1.6,3.8,1.5c2.8-0.1,5.1-2.4,5.1-5.3V50.6c0-0.7,0.6-1.3,1.3-1.3h12.1
	c1.4,0,2.5,1.1,2.6,2.5l3.1,85c0,0.4-0.3,0.7-0.6,0.7H41.1c-0.4,0-0.7-0.3-0.6-0.7l3.1-85C43.7,50.4,44.8,49.3,46.2,49.3z M39.4,166
	l0.6-17.4c0-0.4,0.3-0.6,0.6-0.6h110.6c0.4,0,0.6,0.3,0.6,0.6l0.6,17.4c0,1.5-1.1,2.7-2.6,2.7H42C40.5,168.6,39.3,167.4,39.4,166z"
	/>
</svg>
