<?xml version="1.0" encoding="utf-8"?>
<!-- Generator: Adobe Illustrator 23.1.0, SVG Export Plug-In . SVG Version: 6.00 Build 0)  -->
<svg version="1.1" id="图层_1" xmlns="http://www.w3.org/2000/svg" xmlns:xlink="http://www.w3.org/1999/xlink" x="0px" y="0px"
	 viewBox="0 0 192 192" style="enable-background:new 0 0 192 192;" xml:space="preserve">
<style type="text/css">
	.st0{fill:none;stroke:#000000;stroke-width:12;stroke-linecap:round;stroke-linejoin:round;stroke-miterlimit:10;}
</style>
<path class="st0" d="M151.6,165.5h-7.5c0,0,0-15-16.3-32.5c4.4,10.6,6.9,23.7,7.5,32.5h-20.6c-2.5-5-5.6-10.6-11.3-16.3
	c1.9,5,3.8,10.6,5,16.3H39.8c-0.6-2.5-0.6-5.6-0.6-8.1c0-20.6,11.3-38.8,28.1-48.8h57.5c16.9,10,28.1,27.5,28.1,48.8
	C152.9,159.9,152.3,162.4,151.6,165.5L151.6,165.5z"/>
<path class="st0" d="M112.2,91.5H79.7c-4.4,0-8.1-3.8-8.1-8.1v-8.1c0-4.4,3.8-8.1,8.1-8.1h8.1V34.6c0-4.4,3.8-8.1,8.1-8.1
	s8.1,3.8,8.1,8.1v32.5h8.1c4.4,0,8.1,3.8,8.1,8.1v8.1C120.4,87.8,116.6,91.5,112.2,91.5z"/>
</svg>
