<?xml version="1.0" encoding="utf-8"?>
<!-- Generator: Adobe Illustrator 23.1.0, SVG Export Plug-In . SVG Version: 6.00 Build 0)  -->
<svg version="1.1" id="图层_1" xmlns="http://www.w3.org/2000/svg" xmlns:xlink="http://www.w3.org/1999/xlink" x="0px" y="0px"
	 viewBox="0 0 192 192" style="enable-background:new 0 0 192 192;" xml:space="preserve">
<g>
	<path d="M95,45.7L95,45.7L95,45.7 M84.8,53.8v83.9l-27.7-22.1c-2.1-1.7-4.8-2.6-7.5-2.6H27.3V77.9h23.3c2.7,0,5.4-0.9,7.5-2.6
		L84.8,53.8 M91.1,35.1c-1.3,0-2.5,0.4-3.6,1.3L50.7,65.9H21.1c-3.2,0-5.8,2.6-5.8,5.8v47.7c0,3.2,2.6,5.8,5.8,5.8h28.6l37.8,30.2
		c1,0.8,2.3,1.3,3.6,1.3c0,0,0,0,0,0c3.2,0,5.8-2.6,5.8-5.8V40.8c0-1.3-0.4-2.6-1.3-3.6C94.4,35.8,92.7,35.1,91.1,35.1L91.1,35.1z"
		/>
</g>
<path d="M124.6,131.3c-2.3,2.2-6,2.1-8.1-0.2c-2.1-2.3-2.1-5.8,0.1-8c7.4-7.3,11.6-17.2,11.6-27.6c0-9.6-3.6-18.9-10-26
	c-2.2-2.3-2-6,0.3-8.1c2.3-2.2,6-2,8.1,0.3c0,0,0.1,0.1,0.1,0.1c8.4,9.2,13.1,21.3,13,33.8C139.6,109,134.2,121.9,124.6,131.3
	L124.6,131.3z"/>
<path d="M152,156.3c-2.2,2.3-5.8,2.4-8.1,0.2s-2.4-5.8-0.2-8.1c0,0,0.1-0.1,0.1-0.1c13.8-14.1,21.5-33.1,21.4-52.8
	c0-19.6-7.4-38-20.6-51.9c-2.2-2.3-2-6,0.3-8.1c2.3-2.1,5.9-2,8.1,0.2c15.2,16.1,23.7,37.3,23.7,59.8
	C176.7,118.5,167.7,140.1,152,156.3z"/>
</svg>
