<?xml version="1.0" encoding="utf-8"?>
<!-- Generator: Adobe Illustrator 23.1.0, SVG Export Plug-In . SVG Version: 6.00 Build 0)  -->
<svg version="1.1" id="Layer_1" xmlns="http://www.w3.org/2000/svg" xmlns:xlink="http://www.w3.org/1999/xlink" x="0px" y="0px"
	 viewBox="0 0 192 192" style="enable-background:new 0 0 192 192;" xml:space="preserve">
<path d="M98.9,14.4l-2.9-3l-2.8,3c-1.3,1.4-32.1,34-32.1,75c0,20,7.1,37.4,13.1,48.6l1.1,2.1h41.2l1.1-2.3
	c0.6-1.2,13.4-29.9,13.4-48.3C130.9,48.4,100.2,15.8,98.9,14.4z M96,23.1c3.4,4.1,9.2,11.8,14.7,21.8H81.4
	C86.8,34.9,92.6,27.2,96,23.1z M111.4,132.2H80.1c-4.6-9-11.1-25-11.1-42.8c0-13.4,3.7-25.9,8.5-36.6h37.1
	c4.8,10.7,8.5,23.2,8.5,36.6C123,103.4,114.4,125.1,111.4,132.2z"/>
<path d="M153.5,113.6h-34.1l1.2-4.9c1.6-6.6,2.4-13.1,2.4-19.3c0-8-1.4-16.4-4.1-25l-3-9.6l8.7,5c17.8,10.3,28.8,29.3,28.8,49.8
	L153.5,113.6L153.5,113.6z M129.3,105.7h16.2c-1-12.7-6.9-24.4-16.3-32.9c1.1,5.6,1.7,11.2,1.7,16.6
	C130.9,94.7,130.4,100.2,129.3,105.7L129.3,105.7z M72.5,113.6h-34v-3.9c0-20.5,11-39.5,28.8-49.8l8.7-5l-3,9.6
	c-2.7,8.6-4.1,17-4.1,25c0,6.1,0.8,12.7,2.4,19.3L72.5,113.6L72.5,113.6z M46.5,105.7h16.2c-1.1-5.6-1.6-11-1.6-16.3
	c0-5.4,0.6-11,1.7-16.6C53.4,81.3,47.5,93.1,46.5,105.7L46.5,105.7z M96,96.8c-8,0-14.5-6.5-14.5-14.5S88,67.7,96,67.7
	s14.5,6.5,14.5,14.5S104,96.8,96,96.8z M96,75.6c-3.7,0-6.7,3-6.7,6.7s3,6.7,6.7,6.7s6.7-3,6.7-6.7S99.7,75.6,96,75.6z"/>
<path d="M96,180.5l-3.6-3.6c-5.1-5.1-12.2-12.1-12.2-19.9c0-8.7,7.1-15.8,15.8-15.8c8.7,0,15.8,7.1,15.8,15.8
	c0,7.8-4.3,12.1-11.5,19.3L96,180.5z M96,149.1c-4.4,0-7.9,3.6-7.9,7.9c0,3.8,4.2,8.6,7.9,12.4c6-6,7.9-8.4,7.9-12.4
	C103.9,152.7,100.4,149.1,96,149.1z"/>
</svg>
