<svg xmlns="http://www.w3.org/2000/svg" xml:space="preserve" style="enable-background:new 0 0 192 192" viewBox="0 0 192 192"><style>.st0{fill:none;stroke:#000;stroke-width:12;stroke-linecap:round;stroke-linejoin:round;stroke-miterlimit:10}</style><g id="图层_2"><path d="M149.4 69.3H138V57.9c0-23.1-18.8-42-42-42s-42 18.8-42 42v11.4H42.6c-10.5 0-19.1 8.5-19.1 19.1 0 0 0 0 0 0V157c0 10.5 8.5 19.1 19.1 19.1h106.8c10.5 0 19.1-8.5 19.1-19.1 0 0 0 0 0 0V88.4c0-10.6-8.6-19.1-19.1-19.1zM61.7 57.9C61.7 39 77.1 23.6 96 23.6s34.3 15.4 34.3 34.3v11.4H61.7V57.9zm99.1 99.1c0 6.3-5.1 11.4-11.4 11.4H42.6c-6.3 0-11.4-5.1-11.4-11.4V88.4c0-6.3 5.1-11.4 11.4-11.4h106.8c6.3 0 11.4 5.1 11.4 11.4V157h0z" class="st0"/><path d="M96 99.8c-2.1 0-3.8 1.7-3.8 3.8v38.1c0 2.1 1.7 3.8 3.8 3.8s3.8-1.7 3.8-3.8v-38.1c0-2.1-1.7-3.8-3.8-3.8z" class="st0"/></g></svg>