<?xml version="1.0" encoding="utf-8"?>
<!-- Generator: Adobe Illustrator 23.1.0, SVG Export Plug-In . SVG Version: 6.00 Build 0)  -->
<svg version="1.1" id="图层_1" xmlns="http://www.w3.org/2000/svg" xmlns:xlink="http://www.w3.org/1999/xlink" x="0px" y="0px"
	 viewBox="0 0 192 192" style="enable-background:new 0 0 192 192;" xml:space="preserve">
<style type="text/css">
	.st0{fill:none;stroke:#000000;stroke-width:12;stroke-linecap:round;stroke-linejoin:round;stroke-miterlimit:10;}
	.st1{fill:none;stroke:#000000;stroke-width:6;stroke-linecap:round;stroke-linejoin:round;stroke-miterlimit:10;}
</style>
<path class="st0" d="M170,55.6l-41.7-41.7c-0.4-0.8-1.7-1.3-2.9-1.3H67.1c-1.2,0-2.1,0.4-2.9,1.3L22.5,55.6
	c-0.8,0.4-1.3,1.7-1.3,2.9v58.3c0,1.3,0.4,2.1,1.3,2.9l34.6,34.6h-6.7c-1.3,0-2.1,0.4-2.9,1.3c-0.8,0.8-1.3,1.7-1.3,2.9v16.7
	c0,2.5,1.7,4.2,4.2,4.2h91.7c2.5,0,4.2-1.7,4.2-4.2v-16.7c0-1.3-0.4-2.1-1.3-2.9c-0.8-0.8-1.7-1.3-2.9-1.3h-6.3l34.6-34.6
	c0.8-0.8,1.3-1.7,1.3-2.9V58.5C171.3,57.3,170.9,56,170,55.6L170,55.6z"/>
<rect x="92.1" y="66.8" class="st1" width="8.3" height="75"/>
<rect x="88" y="102.2" transform="matrix(0.3328 -0.943 0.943 0.3328 -16.6405 189.3064)" class="st1" width="75" height="8.3"/>
<rect x="63" y="68.9" transform="matrix(0.9431 -0.3325 0.3325 0.9431 -31.5679 28.3763)" class="st1" width="8.3" height="75"/>
</svg>
