<?xml version="1.0" encoding="utf-8"?>
<!-- Generator: Adobe Illustrator 23.1.0, SVG Export Plug-In . SVG Version: 6.00 Build 0)  -->
<svg version="1.1" id="图层_1" xmlns="http://www.w3.org/2000/svg" xmlns:xlink="http://www.w3.org/1999/xlink" x="0px" y="0px"
	 viewBox="0 0 192 192" style="enable-background:new 0 0 192 192;" xml:space="preserve">
<style type="text/css">
	.st0{fill:none;stroke:#000000;stroke-width:7;stroke-miterlimit:10;}
	.st1{fill:none;stroke:#000000;stroke-width:12;stroke-miterlimit:10;}
	.st2{fill:none;stroke:#000000;stroke-width:8;stroke-miterlimit:10;}
</style>
<path class="st0" d="M129.5,44.3c2.4,0.1,4.7,0.1,6.7,0c0.3,0,0.6,0,0.9,0c-6.7-2.9-13.8-4.5-19.9-5.3c-3.2-0.4-6.3-0.8-9.5-1
	l-1.4-0.1c-0.7,0-1.3-0.1-1.8-0.1c-0.7,0-1.4-0.1-2.1-0.3c-0.7-0.2-1.2-0.7-1.3-1.5c-0.5-3,0.2-6.8,0.9-9.7c0.3-1.1,0.5-2.1,0.8-2.9
	h-4.6l-3,10.9c-0.1,0.4-0.3,0.7-0.7,1c-0.8,0.6-2,0.9-3.1,1.1c-1.2,0.2-2.7,0.4-4.4,0.4c-3.3,0.2-7.5,0.2-11.8,0
	c-6-0.2-12.4-0.6-17.5-0.9c2.2,1.1,4.5,1.9,6.9,2.6c5.8,1.7,12.4,2.9,17.2,2.9c1,0,1.8,0.8,1.8,1.8c0,0.2,0,0.4-0.1,0.6
	c-0.2,0.5-0.5,1-0.9,1.5c-0.4,0.5-0.8,0.9-1.3,1.3c-1,0.9-2.2,1.9-3.6,2.9c-1.4,1-2.9,2.1-4.4,3.2c2.6-0.1,5.5-0.8,8.2-1.7
	c2.1-0.7,4.2-1.6,5.9-2.4l1.6-0.7v0c1.1-0.5,2.1-1,2.9-1.3c0.9-0.4,1.9,0.1,2.3,1c0,0,0,0.1,0,0.1c1.7,4.9,5.9,7.8,10,9.5
	c1.8,0.7,3.5,1.2,4.8,1.5c-0.2-0.7-0.4-1.4-0.6-2.2c-0.8-2.8-1.5-6.6-1.1-9.7c0.1-0.5,0.3-0.9,0.7-1.2c0.8-0.6,2-0.9,3.1-1.1
	c1.2-0.2,2.6-0.3,4.1-0.3c2.9-0.1,6.4,0.1,9.9,0.2l0.6,0l3.2,0.1L129.5,44.3L129.5,44.3z"/>
<path class="st1" d="M167.3,105.3c0-26.5-15.8-44.2-38.4-52.9c-1,0-2-0.1-3-0.1l-0.6,0c-3.5-0.1-6.9-0.2-9.7-0.2
	c-1.2,0-2.5,0.1-3.7,0.3c-0.3,0-0.6,0.1-0.9,0.2c-0.1,2.2,0.4,4.9,1.1,7.3c0.4,1.6,0.9,3.1,1.5,4.6l0,0.1l0,0c0.4,0.9-0.1,1.9-1,2.3
	c-0.3,0.1-0.6,0.1-0.8,0.1h0l0,0l-0.2,0c-0.8-0.1-1.6-0.2-2.4-0.4c-2.1-0.4-4.1-1.1-6-1.8c-4.1-1.7-8.8-4.6-11.3-9.8l-1,0.5
	c-0.5,0.2-1.1,0.5-1.7,0.8c-1.8,0.8-4,1.8-6.2,2.5c-4.5,1.6-9.9,2.7-14.7,1.3c-0.9-0.3-1.5-1.3-1.2-2.2c0.1-0.4,0.3-0.7,0.7-0.9
	c0.8-0.6,1.8-1.3,2.8-2c1.7-1.2,3.6-2.5,5.3-3.8c0.8-0.6,1.6-1.2,2.3-1.8c-2.2-0.2-4.3-0.5-6.4-0.9c-13.9,3.1-25.5,9.4-33.6,18.7
	c-8.2,9.4-13,22.1-13,38.1c0,19.7,6.7,35.5,18.9,46.3c12.2,10.9,30,16.9,52.4,16.9c22.4,0,40.2-6.1,52.4-16.9
	C160.5,140.8,167.3,125,167.3,105.3L167.3,105.3z"/>
<path class="st2" d="M141.6,121.8c1.2-0.6,2.4-2,3.6-3.9c1.1-2,2-4.4,2.5-7.1c1-5.4,0.5-11.6-2.6-16.3l3-1.9
	c3.7,5.7,4.3,12.8,3.1,18.9c-0.6,3-1.6,5.9-2.9,8.2c-1.3,2.3-3,4.3-5,5.3L141.6,121.8L141.6,121.8z"/>
</svg>
