<?xml version="1.0" encoding="utf-8"?>
<!-- Generator: Adobe Illustrator 23.1.0, SVG Export Plug-In . SVG Version: 6.00 Build 0)  -->
<svg version="1.1" id="图层_1" xmlns="http://www.w3.org/2000/svg" xmlns:xlink="http://www.w3.org/1999/xlink" x="0px" y="0px"
	 viewBox="0 0 192 192" style="enable-background:new 0 0 192 192;" xml:space="preserve">
<style type="text/css">
	.st0{stroke:#000000;stroke-width:2;stroke-miterlimit:10;}
</style>
<path class="st0" d="M52.8,8.5h87.5c12.1,0,21.9,9.8,21.9,21.9v131.3c0,12.1-9.8,21.9-21.9,21.9H52.8c-12.1,0-21.9-9.8-21.9-21.9
	V30.4C30.9,18.3,40.7,8.5,52.8,8.5z M52.8,17.9c-6.9,0-12.5,5.6-12.5,12.5v131.3c0,6.9,5.6,12.5,12.5,12.5h87.5
	c6.9,0,12.5-5.6,12.5-12.5V30.4c0-6.9-5.6-12.5-12.5-12.5H52.8z"/>
<path class="st0" d="M96.5,110.1c21.6,0,39.1-17.5,39.1-39.1s-17.5-39.1-39.1-39.1S57.4,49.4,57.4,71S74.9,110.1,96.5,110.1z
	 M96.5,100.7c-16.4,0-29.7-13.3-29.7-29.7s13.3-29.7,29.7-29.7s29.7,13.3,29.7,29.7S112.9,100.7,96.5,100.7z"/>
<path class="st0" d="M113.7,138.2h21.9c3.1,0,4.7,1.6,4.7,4.7l0,0c0,3.1-1.6,4.7-4.7,4.7h-21.9c-3.1,0-4.7-1.6-4.7-4.7l0,0
	C109,139.8,110.6,138.2,113.7,138.2z"/>
<path class="st0" d="M57.4,138.2h21.9c3.1,0,4.7,1.6,4.7,4.7l0,0c0,3.1-1.6,4.7-4.7,4.7H57.4c-3.1,0-4.7-1.6-4.7-4.7l0,0
	C52.8,139.8,54.3,138.2,57.4,138.2z"/>
</svg>
