<svg xmlns="http://www.w3.org/2000/svg" xml:space="preserve" style="enable-background:new 0 0 192 192" viewBox="0 0 192 192"><path d="M118.1 23.4c-4.9 4.2-10.8 6.9-17.1 8-7.2 1-14.2 3.2-20.7 6.4a32.8 32.8 0 0 0-6.9 4.8c-3.2 2.8-5.7 8-4.9 9.7S76.6 64 86 77.3s18.3 25.8 20.3 28.5c1.2 1.7 2.3 3.4 3.2 5.3 0 .4-1.7 0-3.2-.4-8.9-1.5-18-.1-26 4-6.6 3.7-12.1 9.1-15.8 15.7-3.3 6.7-3.7 14.4-1.2 21.3 2.8 6.7 8.1 12.1 14.6 15.3 4 2.4 8.7 3.5 13.4 3.2 4.1.4 8.2.1 12.2-.8 14.3-3.3 25-15.2 26.8-29.8.4-7.7-.4-10.1-10.6-27.6-15.8-27.6-30.1-52.3-30.1-52.7l6.5-.8c9.8 0 18.8-5.3 23.6-13.8 2-3.6 2-4.8 2-12.5.2-3.2-.1-6.5-.8-9.7-.4-1.5-.7-1.1-2.8.9z" style="fill:none;stroke:#000;stroke-width:12;stroke-linecap:round;stroke-linejoin:round"/></svg>