<?xml version="1.0" encoding="utf-8"?>
<!-- Generator: Adobe Illustrator 23.1.0, SVG Export Plug-In . SVG Version: 6.00 Build 0)  -->
<svg version="1.1" id="图层_1" xmlns="http://www.w3.org/2000/svg" xmlns:xlink="http://www.w3.org/1999/xlink" x="0px" y="0px"
	 viewBox="0 0 192 192" style="enable-background:new 0 0 192 192;" xml:space="preserve">
<style type="text/css">
	.st0{fill:none;stroke:#000000;stroke-width:12;stroke-miterlimit:10;}
	.st1{stroke:#000000;stroke-width:4;stroke-miterlimit:10;}
</style>
<path class="st0" d="M139.5,166.3c-11,0-20.1-4.6-25-7.7c-0.2-0.1-0.4-0.3-0.5-0.4L26.5,70.7c-0.9-0.9-1.1-2.1-0.7-3.2
	c0.4-1.1,4.5-11.4,11.6-21.5c4.1-5.8,8.4-10.5,12.8-13.8c5.7-4.3,11.5-6.5,17.5-6.5h0.1c2.8,0,5.5,0.5,8.2,1.4
	c1.3,0.4,2.1,1.7,2,3.1c-0.3,5.3,0.9,10.5,3.6,14.6c2.5,3.9,6.2,6.7,10.2,7.7c6.9,1.8,13.1-1.9,15.2-3.4c4.3-4.9,9.9-7,14.4-5.3
	c1.4,0.5,2.6,1.4,3.5,2.5c0.6,0.7,0.9,1.6,0.8,2.4c-1.2,9.3-1.4,23.5,5,38.4c2.6,6.1,6.1,11.9,10.4,17c1.7,0.9,3.4,1.9,5.1,3
	c4.4,2.8,11,7.1,16.4,12.5c6.8,6.8,10,13.7,9.6,20.7c-0.3,4.8-2.2,9.5-5.8,14c-1.8,2.2-3.9,4.3-6.2,6c-5.9,4.3-11.8,5.2-14.7,5.6
	C143.4,166.2,141.4,166.3,139.5,166.3L139.5,166.3z"/>
<path class="st1" d="M124.4,169.1c-11,0-19.1-1.3-24.8-4.1c-0.9-0.4-9.8-4.7-10.1-4.9c-0.3-0.1-0.6-0.3-0.8-0.6L19.5,90.5
	c-0.6-0.6-1-1.6-0.9-2.5c0.7-6.4,2.8-12.6,6.1-18.1c0.9-1.4,2.7-1.9,4.2-1c1.4,0.9,1.9,2.7,1,4.2c-2.6,4.3-4.3,9.2-5.1,14.2
	L92.6,155c1.9,0.9,8.9,4.3,9.6,4.7c6.1,2.9,16.5,4,30.7,3.2c1.7-0.1,3.1,1.2,3.2,2.9s-1.2,3.1-2.9,3.2
	C130.1,169,127.2,169.1,124.4,169.1L124.4,169.1z"/>
<path d="M120.6,79.8H106c-1.7,0-3-1.4-3-3c0-1.7,1.4-3,3-3h14.6c1.7,0,3,1.4,3,3C123.7,78.4,122.3,79.8,120.6,79.8z"/>
<path d="M124,92.1h-14.6c-1.7,0-3-1.4-3-3c0-1.7,1.4-3,3-3H124c1.7,0,3,1.4,3,3C127,90.8,125.6,92.1,124,92.1L124,92.1z"/>
<path d="M136.2,105.9h-22.9c-1.7,0-3-1.4-3-3c0-1.7,1.4-3,3-3h22.9c1.7,0,3,1.4,3,3C139.2,104.6,137.9,105.9,136.2,105.9
	L136.2,105.9z"/>
</svg>
