<?xml version="1.0" encoding="utf-8"?>
<!-- Generator: Adobe Illustrator 23.1.0, SVG Export Plug-In . SVG Version: 6.00 Build 0)  -->
<svg version="1.1" id="图层_1" xmlns="http://www.w3.org/2000/svg" xmlns:xlink="http://www.w3.org/1999/xlink" x="0px" y="0px"
	 viewBox="0 0 192 192" style="enable-background:new 0 0 192 192;" xml:space="preserve">
<style type="text/css">
	.st0{fill:#FFFFFF;}
</style>
<path d="M40,51.8c0-6.7,3.3-10,9.9-10h25.5c6.7,0,10,3.3,10,10v75.5c0,3.1-1.6,4.7-4.8,4.7c-3.1,0-4.7-1.6-4.7-4.7V55.9
	c0-3.1-1.6-4.7-4.7-4.7H54c-3.1,0-4.7,1.6-4.7,4.7v71.4c0,3.1-1.6,4.7-4.7,4.7s-4.7-1.6-4.7-4.7L40,51.8L40,51.8z"/>
<path d="M45.2,153.9c-1.5,1.4-2.9,2.1-4.1,2.1c-3-0.4-4.8-1.8-5.3-4.1c0.1-1.6,0.6-3,1.6-4.3c7.2-5.9,12.2-11.6,14.9-17.2
	c3.3-7,4.9-14.8,4.9-23.4V61.1c0.1-3,1.6-4.6,4.7-4.7c2.9,0.1,4.4,1.6,4.7,4.7V107c0,7.9-1.6,15.9-4.8,23.9
	C59,138.5,53.5,146.1,45.2,153.9z"/>
<path d="M86.3,148.6c0,2.8-1.6,4.1-4.7,4.1c-1.8,0-3.2-1-4.1-3.1c-4-7.3-8.2-13-12.5-17.2V130c0.4-2.1,1.8-3.4,4.1-3.7
	c2,0,3.4,0.7,4.3,2.1c4.4,4.2,8.7,10.3,12.9,18.3L86.3,148.6L86.3,148.6z"/>
<path d="M151.6,62.2h-27.6v25h20.8c5.5,0,8.3,2.6,8.3,7.9v51.1c0,5.2-2.8,7.7-8.3,7.7h-44.3c-5.3,0-7.9-2.6-7.9-7.7V95
	c0-5.3,2.6-7.9,7.9-7.9h14V40.8c0-3.2,1.6-4.8,4.7-4.8c3.2,0,4.8,1.6,4.8,4.8v11.9h27.6c3.1,0,4.7,1.6,4.7,4.8
	C156.3,60.6,154.7,62.2,151.6,62.2L151.6,62.2z"/>
<path class="st0" d="M102.5,99.7v41.8c0,2.1,0.9,3.1,2.7,3.1h35c2.1,0,3.1-1,3.1-3.1V99.7c0-2.1-1-3.1-3.1-3.1h-35
	C103.4,96.6,102.5,97.6,102.5,99.7z"/>
</svg>
